<svg width="40" height="35" viewBox="0 0 40 35" fill="none" xmlns="http://www.w3.org/2000/svg">
<path d="M0 -1.52588e-05H34C37.3137 -1.52588e-05 40 2.68628 40 5.99998V35H15C6.71573 35 0 28.2843 0 20V-1.52588e-05Z" fill="black" fill-opacity="0.5"/>
<path fill-rule="evenodd" clip-rule="evenodd" d="M20.1302 10.5325C26.4748 10.5325 30.0277 17.4548 30.1969 17.7925C30.2815 17.9613 30.2815 18.299 30.1969 18.4678C30.0277 18.8055 26.4748 25.7278 20.1302 25.7278C14.1583 25.7278 10.6597 19.5949 10.1282 18.6632C10.095 18.605 10.0734 18.5671 10.0634 18.5523C9.97885 18.299 9.97885 18.0457 10.0634 17.7925C10.2326 17.4548 13.7856 10.5325 20.1302 10.5325ZM11.7553 18.13C12.6013 19.4807 15.5621 24.0393 20.1302 24.0393C24.6983 24.0393 27.6591 19.4807 28.505 18.13C27.6591 16.7793 24.6983 12.2207 20.1302 12.2207C15.5621 12.2207 12.5167 16.7793 11.7553 18.13ZM20.1302 14.7533C18.2691 14.7533 16.7464 16.2728 16.7464 18.13C16.7464 19.9872 18.2691 21.5067 20.1302 21.5067C21.9913 21.5067 23.514 19.9872 23.514 18.13C23.514 16.2728 21.9913 14.7533 20.1302 14.7533ZM18.4383 18.13C18.4383 19.0586 19.1997 19.8184 20.1302 19.8184C21.0607 19.8184 21.8221 19.0586 21.8221 18.13C21.8221 17.2014 21.0607 16.4416 20.1302 16.4416C19.1997 16.4416 18.4383 17.2014 18.4383 18.13Z" fill="black"/>
<mask id="mask0_2_301" style="mask-type:luminance" maskUnits="userSpaceOnUse" x="10" y="10" width="21" height="16">
<path fill-rule="evenodd" clip-rule="evenodd" d="M20.1302 10.5325C26.4748 10.5325 30.0277 17.4548 30.1969 17.7925C30.2815 17.9613 30.2815 18.299 30.1969 18.4678C30.0277 18.8055 26.4748 25.7278 20.1302 25.7278C14.1583 25.7278 10.6597 19.5949 10.1282 18.6632C10.095 18.605 10.0734 18.5671 10.0634 18.5523C9.97885 18.299 9.97885 18.0457 10.0634 17.7925C10.2326 17.4548 13.7856 10.5325 20.1302 10.5325ZM11.7553 18.13C12.6013 19.4807 15.5621 24.0393 20.1302 24.0393C24.6983 24.0393 27.6591 19.4807 28.505 18.13C27.6591 16.7793 24.6983 12.2207 20.1302 12.2207C15.5621 12.2207 12.5167 16.7793 11.7553 18.13ZM20.1302 14.7533C18.2691 14.7533 16.7464 16.2728 16.7464 18.13C16.7464 19.9872 18.2691 21.5067 20.1302 21.5067C21.9913 21.5067 23.514 19.9872 23.514 18.13C23.514 16.2728 21.9913 14.7533 20.1302 14.7533ZM18.4383 18.13C18.4383 19.0586 19.1997 19.8184 20.1302 19.8184C21.0607 19.8184 21.8221 19.0586 21.8221 18.13C21.8221 17.2014 21.0607 16.4416 20.1302 16.4416C19.1997 16.4416 18.4383 17.2014 18.4383 18.13Z" fill="white"/>
</mask>
<g mask="url(#mask0_2_301)">
<rect x="10" y="7.99998" width="20.2604" height="20.2604" fill="white"/>
</g>
</svg>
