<svg width="23" height="23" viewBox="0 0 23 23" fill="none" xmlns="http://www.w3.org/2000/svg">
<path fill-rule="evenodd" clip-rule="evenodd" d="M2.76794 5.56469C4.29434 5.56469 5.53173 4.3273 5.53173 2.8009C5.53173 1.2745 4.29434 0.0371094 2.76794 0.0371094C1.24154 0.0371094 0.00415039 1.2745 0.00415039 2.8009C0.00415039 4.3273 1.24154 5.56469 2.76794 5.56469ZM8.14141 7.659V22.9925H12.9023V15.4097C12.9023 13.4089 13.2787 11.4712 15.7595 11.4712C18.2063 11.4712 18.2366 13.7588 18.2366 15.5361V22.9937H22.9999V14.5849C22.9999 10.4544 22.1107 7.28006 17.2829 7.28006C14.965 7.28006 13.4113 8.55206 12.7759 9.75585H12.7115V7.659H8.14141ZM0.383098 7.659H5.15152V22.9925H0.383098V7.659Z" fill="white"/>
</svg>
