<svg width="75" height="41" viewBox="0 0 75 41" fill="none" xmlns="http://www.w3.org/2000/svg">
<path d="M6.202 16.072C5.362 16.072 4.582 15.946 3.862 15.694C3.154 15.43 2.602 15.1 2.206 14.704C2.026 14.512 1.948 14.296 1.972 14.056C2.008 13.804 2.128 13.6 2.332 13.444C2.572 13.252 2.806 13.174 3.034 13.21C3.274 13.234 3.478 13.336 3.646 13.516C3.85 13.744 4.174 13.96 4.618 14.164C5.074 14.356 5.578 14.452 6.13 14.452C6.826 14.452 7.354 14.338 7.714 14.11C8.086 13.882 8.278 13.588 8.29 13.228C8.302 12.868 8.128 12.556 7.768 12.292C7.42 12.028 6.778 11.812 5.842 11.644C4.63 11.404 3.748 11.044 3.196 10.564C2.656 10.084 2.386 9.496 2.386 8.8C2.386 8.188 2.566 7.684 2.926 7.288C3.286 6.88 3.748 6.58 4.312 6.388C4.876 6.184 5.464 6.082 6.076 6.082C6.868 6.082 7.57 6.208 8.182 6.46C8.794 6.712 9.28 7.06 9.64 7.504C9.808 7.696 9.886 7.9 9.874 8.116C9.862 8.32 9.76 8.494 9.568 8.638C9.376 8.77 9.148 8.812 8.884 8.764C8.62 8.716 8.398 8.608 8.218 8.44C7.918 8.152 7.594 7.954 7.246 7.846C6.898 7.738 6.496 7.684 6.04 7.684C5.512 7.684 5.062 7.774 4.69 7.954C4.33 8.134 4.15 8.398 4.15 8.746C4.15 8.962 4.204 9.16 4.312 9.34C4.432 9.508 4.66 9.664 4.996 9.808C5.332 9.94 5.824 10.072 6.472 10.204C7.828 10.468 8.764 10.846 9.28 11.338C9.808 11.818 10.072 12.412 10.072 13.12C10.072 13.672 9.922 14.17 9.622 14.614C9.334 15.058 8.902 15.412 8.326 15.676C7.762 15.94 7.054 16.072 6.202 16.072ZM16.7494 16.072C15.7534 16.072 14.8654 15.862 14.0854 15.442C13.3174 15.01 12.7114 14.422 12.2674 13.678C11.8354 12.922 11.6194 12.058 11.6194 11.086C11.6194 10.102 11.8234 9.238 12.2314 8.494C12.6514 7.738 13.2274 7.15 13.9594 6.73C14.6914 6.298 15.5314 6.082 16.4794 6.082C17.4154 6.082 18.2194 6.292 18.8914 6.712C19.5634 7.12 20.0734 7.69 20.4214 8.422C20.7814 9.142 20.9614 9.976 20.9614 10.924C20.9614 11.152 20.8834 11.344 20.7274 11.5C20.5714 11.644 20.3734 11.716 20.1334 11.716H13.2934C13.4254 12.544 13.8034 13.222 14.4274 13.75C15.0634 14.266 15.8374 14.524 16.7494 14.524C17.1214 14.524 17.4994 14.458 17.8834 14.326C18.2794 14.182 18.5974 14.02 18.8374 13.84C19.0174 13.708 19.2094 13.642 19.4134 13.642C19.6294 13.63 19.8154 13.69 19.9714 13.822C20.1754 14.002 20.2834 14.2 20.2954 14.416C20.3074 14.632 20.2114 14.818 20.0074 14.974C19.5994 15.298 19.0894 15.562 18.4774 15.766C17.8774 15.97 17.3014 16.072 16.7494 16.072ZM16.4794 7.63C15.5914 7.63 14.8774 7.876 14.3374 8.368C13.7974 8.86 13.4554 9.496 13.3114 10.276H19.3054C19.1974 9.508 18.9034 8.878 18.4234 8.386C17.9434 7.882 17.2954 7.63 16.4794 7.63ZM27.1456 16.072C26.1856 16.072 25.3276 15.856 24.5716 15.424C23.8276 14.98 23.2396 14.386 22.8076 13.642C22.3876 12.886 22.1776 12.034 22.1776 11.086C22.1776 10.114 22.3876 9.25 22.8076 8.494C23.2276 7.738 23.8036 7.15 24.5356 6.73C25.2676 6.298 26.1076 6.082 27.0556 6.082C28.4716 6.082 29.6476 6.622 30.5836 7.702C30.7516 7.894 30.8116 8.092 30.7636 8.296C30.7156 8.5 30.5836 8.68 30.3676 8.836C30.1996 8.956 30.0136 8.998 29.8096 8.962C29.6056 8.914 29.4196 8.806 29.2516 8.638C28.6636 8.014 27.9316 7.702 27.0556 7.702C26.1316 7.702 25.3816 8.014 24.8056 8.638C24.2296 9.25 23.9416 10.066 23.9416 11.086C23.9416 11.734 24.0736 12.31 24.3376 12.814C24.6136 13.318 24.9916 13.72 25.4716 14.02C25.9516 14.308 26.5096 14.452 27.1456 14.452C27.9616 14.452 28.6216 14.242 29.1256 13.822C29.3176 13.666 29.5156 13.582 29.7196 13.57C29.9236 13.546 30.1036 13.6 30.2596 13.732C30.4636 13.9 30.5776 14.092 30.6016 14.308C30.6256 14.512 30.5536 14.698 30.3856 14.866C29.5216 15.67 28.4416 16.072 27.1456 16.072ZM37.6861 16.072C36.7141 16.072 35.8561 15.862 35.1121 15.442C34.3681 15.01 33.7801 14.422 33.3481 13.678C32.9281 12.922 32.7181 12.058 32.7181 11.086C32.7181 10.102 32.9281 9.238 33.3481 8.494C33.7801 7.738 34.3681 7.15 35.1121 6.73C35.8561 6.298 36.7141 6.082 37.6861 6.082C38.6461 6.082 39.4981 6.298 40.2421 6.73C40.9861 7.15 41.5681 7.738 41.9881 8.494C42.4201 9.238 42.6361 10.102 42.6361 11.086C42.6361 12.058 42.4261 12.922 42.0061 13.678C41.5861 14.422 41.0041 15.01 40.2601 15.442C39.5161 15.862 38.6581 16.072 37.6861 16.072ZM37.6861 14.452C38.3101 14.452 38.8621 14.308 39.3421 14.02C39.8221 13.732 40.1941 13.336 40.4581 12.832C40.7341 12.328 40.8721 11.746 40.8721 11.086C40.8721 10.426 40.7341 9.844 40.4581 9.34C40.1941 8.824 39.8221 8.422 39.3421 8.134C38.8621 7.846 38.3101 7.702 37.6861 7.702C37.0621 7.702 36.5101 7.846 36.0301 8.134C35.5501 8.422 35.1721 8.824 34.8961 9.34C34.6201 9.844 34.4821 10.426 34.4821 11.086C34.4821 11.746 34.6201 12.328 34.8961 12.832C35.1721 13.336 35.5501 13.732 36.0301 14.02C36.5101 14.308 37.0621 14.452 37.6861 14.452ZM46.0166 16.018C45.7526 16.018 45.5306 15.934 45.3506 15.766C45.1826 15.586 45.0986 15.364 45.0986 15.1V7.072C45.0986 6.796 45.1826 6.574 45.3506 6.406C45.5306 6.238 45.7526 6.154 46.0166 6.154C46.2926 6.154 46.5146 6.238 46.6826 6.406C46.8506 6.574 46.9346 6.796 46.9346 7.072V7.27C47.3066 6.898 47.7566 6.604 48.2846 6.388C48.8126 6.172 49.3826 6.064 49.9946 6.064C50.8226 6.064 51.5606 6.244 52.2086 6.604C52.8686 6.952 53.3846 7.468 53.7566 8.152C54.1406 8.836 54.3326 9.676 54.3326 10.672V15.1C54.3326 15.364 54.2426 15.586 54.0626 15.766C53.8946 15.934 53.6786 16.018 53.4146 16.018C53.1506 16.018 52.9286 15.934 52.7486 15.766C52.5806 15.586 52.4966 15.364 52.4966 15.1V10.672C52.4966 9.652 52.2206 8.908 51.6686 8.44C51.1286 7.96 50.4506 7.72 49.6346 7.72C49.1306 7.72 48.6746 7.822 48.2666 8.026C47.8586 8.23 47.5346 8.506 47.2946 8.854C47.0546 9.19 46.9346 9.58 46.9346 10.024V15.1C46.9346 15.364 46.8506 15.586 46.6826 15.766C46.5146 15.934 46.2926 16.018 46.0166 16.018ZM61.5621 16.072C60.6261 16.072 59.7801 15.856 59.0241 15.424C58.2801 14.98 57.6861 14.38 57.2421 13.624C56.8101 12.868 56.5941 12.016 56.5941 11.068C56.5941 10.12 56.7921 9.274 57.1881 8.53C57.5961 7.774 58.1481 7.18 58.8441 6.748C59.5401 6.304 60.3261 6.082 61.2021 6.082C61.9101 6.082 62.5641 6.232 63.1641 6.532C63.7641 6.82 64.2681 7.216 64.6761 7.72V2.86C64.6761 2.584 64.7601 2.362 64.9281 2.194C65.1081 2.026 65.3301 1.942 65.5941 1.942C65.8701 1.942 66.0921 2.026 66.2601 2.194C66.4281 2.362 66.5121 2.584 66.5121 2.86V11.068C66.5121 12.016 66.2901 12.868 65.8461 13.624C65.4141 14.38 64.8261 14.98 64.0821 15.424C63.3381 15.856 62.4981 16.072 61.5621 16.072ZM61.5621 14.452C62.1741 14.452 62.7201 14.308 63.2001 14.02C63.6801 13.72 64.0581 13.312 64.3341 12.796C64.6101 12.28 64.7481 11.704 64.7481 11.068C64.7481 10.42 64.6101 9.844 64.3341 9.34C64.0581 8.836 63.6801 8.44 63.2001 8.152C62.7201 7.852 62.1741 7.702 61.5621 7.702C60.9621 7.702 60.4161 7.852 59.9241 8.152C59.4441 8.44 59.0601 8.836 58.7721 9.34C58.4961 9.844 58.3581 10.42 58.3581 11.068C58.3581 11.704 58.4961 12.28 58.7721 12.796C59.0601 13.312 59.4441 13.72 59.9241 14.02C60.4161 14.308 60.9621 14.452 61.5621 14.452ZM69.4304 11.986C69.1664 11.986 68.9444 11.902 68.7644 11.734C68.5964 11.566 68.5124 11.35 68.5124 11.086C68.5124 10.81 68.5964 10.588 68.7644 10.42C68.9444 10.252 69.1664 10.168 69.4304 10.168H73.4444C73.7084 10.168 73.9244 10.252 74.0924 10.42C74.2604 10.588 74.3444 10.81 74.3444 11.086C74.3444 11.35 74.2604 11.566 74.0924 11.734C73.9244 11.902 73.7084 11.986 73.4444 11.986H69.4304ZM6.724 36.072C5.824 36.072 5.026 35.862 4.33 35.442C3.646 35.01 3.106 34.422 2.71 33.678C2.314 32.922 2.116 32.058 2.116 31.086C2.116 30.102 2.326 29.238 2.746 28.494C3.178 27.738 3.766 27.15 4.51 26.73C5.254 26.298 6.112 26.082 7.084 26.082C8.044 26.082 8.896 26.298 9.64 26.73C10.384 27.15 10.966 27.738 11.386 28.494C11.818 29.238 12.034 30.102 12.034 31.086V34.974C12.034 35.922 11.824 36.78 11.404 37.548C10.984 38.328 10.396 38.946 9.64 39.402C8.896 39.858 8.032 40.086 7.048 40.086C6.196 40.086 5.398 39.918 4.654 39.582C3.91 39.246 3.28 38.754 2.764 38.106C2.608 37.902 2.548 37.692 2.584 37.476C2.632 37.26 2.752 37.086 2.944 36.954C3.16 36.81 3.382 36.762 3.61 36.81C3.85 36.858 4.042 36.978 4.186 37.17C4.51 37.578 4.918 37.896 5.41 38.124C5.902 38.352 6.46 38.466 7.084 38.466C7.66 38.466 8.188 38.328 8.668 38.052C9.16 37.776 9.55 37.368 9.838 36.828C10.126 36.288 10.27 35.628 10.27 34.848V33.966C9.898 34.614 9.406 35.13 8.794 35.514C8.182 35.886 7.492 36.072 6.724 36.072ZM7.084 34.452C7.708 34.452 8.26 34.308 8.74 34.02C9.22 33.732 9.592 33.336 9.856 32.832C10.132 32.328 10.27 31.746 10.27 31.086C10.27 30.426 10.132 29.844 9.856 29.34C9.592 28.824 9.22 28.422 8.74 28.134C8.26 27.846 7.708 27.702 7.084 27.702C6.46 27.702 5.908 27.846 5.428 28.134C4.948 28.422 4.57 28.824 4.294 29.34C4.018 29.844 3.88 30.426 3.88 31.086C3.88 31.746 4.018 32.328 4.294 32.832C4.57 33.336 4.948 33.732 5.428 34.02C5.908 34.308 6.46 34.452 7.084 34.452ZM18.9605 36.072C17.9885 36.072 17.1305 35.862 16.3865 35.442C15.6425 35.01 15.0545 34.422 14.6225 33.678C14.2025 32.922 13.9925 32.058 13.9925 31.086C13.9925 30.102 14.2025 29.238 14.6225 28.494C15.0545 27.738 15.6425 27.15 16.3865 26.73C17.1305 26.298 17.9885 26.082 18.9605 26.082C19.9205 26.082 20.7725 26.298 21.5165 26.73C22.2605 27.15 22.8425 27.738 23.2625 28.494C23.6945 29.238 23.9105 30.102 23.9105 31.086C23.9105 32.058 23.7005 32.922 23.2805 33.678C22.8605 34.422 22.2785 35.01 21.5345 35.442C20.7905 35.862 19.9325 36.072 18.9605 36.072ZM18.9605 34.452C19.5845 34.452 20.1365 34.308 20.6165 34.02C21.0965 33.732 21.4685 33.336 21.7325 32.832C22.0085 32.328 22.1465 31.746 22.1465 31.086C22.1465 30.426 22.0085 29.844 21.7325 29.34C21.4685 28.824 21.0965 28.422 20.6165 28.134C20.1365 27.846 19.5845 27.702 18.9605 27.702C18.3365 27.702 17.7845 27.846 17.3045 28.134C16.8245 28.422 16.4465 28.824 16.1705 29.34C15.8945 29.844 15.7565 30.426 15.7565 31.086C15.7565 31.746 15.8945 32.328 16.1705 32.832C16.4465 33.336 16.8245 33.732 17.3045 34.02C17.7845 34.308 18.3365 34.452 18.9605 34.452ZM30.837 36.072C29.865 36.072 29.007 35.862 28.263 35.442C27.519 35.01 26.931 34.422 26.499 33.678C26.079 32.922 25.869 32.058 25.869 31.086C25.869 30.102 26.079 29.238 26.499 28.494C26.931 27.738 27.519 27.15 28.263 26.73C29.007 26.298 29.865 26.082 30.837 26.082C31.797 26.082 32.649 26.298 33.393 26.73C34.137 27.15 34.719 27.738 35.139 28.494C35.571 29.238 35.787 30.102 35.787 31.086C35.787 32.058 35.577 32.922 35.157 33.678C34.737 34.422 34.155 35.01 33.411 35.442C32.667 35.862 31.809 36.072 30.837 36.072ZM30.837 34.452C31.461 34.452 32.013 34.308 32.493 34.02C32.973 33.732 33.345 33.336 33.609 32.832C33.885 32.328 34.023 31.746 34.023 31.086C34.023 30.426 33.885 29.844 33.609 29.34C33.345 28.824 32.973 28.422 32.493 28.134C32.013 27.846 31.461 27.702 30.837 27.702C30.213 27.702 29.661 27.846 29.181 28.134C28.701 28.422 28.323 28.824 28.047 29.34C27.771 29.844 27.633 30.426 27.633 31.086C27.633 31.746 27.771 32.328 28.047 32.832C28.323 33.336 28.701 33.732 29.181 34.02C29.661 34.308 30.213 34.452 30.837 34.452ZM42.7135 36.072C41.7775 36.072 40.9315 35.856 40.1755 35.424C39.4315 34.98 38.8375 34.38 38.3935 33.624C37.9615 32.868 37.7455 32.016 37.7455 31.068C37.7455 30.12 37.9435 29.274 38.3395 28.53C38.7475 27.774 39.2995 27.18 39.9955 26.748C40.6915 26.304 41.4775 26.082 42.3535 26.082C43.0615 26.082 43.7155 26.232 44.3155 26.532C44.9155 26.82 45.4195 27.216 45.8275 27.72V22.86C45.8275 22.584 45.9115 22.362 46.0795 22.194C46.2595 22.026 46.4815 21.942 46.7455 21.942C47.0215 21.942 47.2435 22.026 47.4115 22.194C47.5795 22.362 47.6635 22.584 47.6635 22.86V31.068C47.6635 32.016 47.4415 32.868 46.9975 33.624C46.5655 34.38 45.9775 34.98 45.2335 35.424C44.4895 35.856 43.6495 36.072 42.7135 36.072ZM42.7135 34.452C43.3255 34.452 43.8715 34.308 44.3515 34.02C44.8315 33.72 45.2095 33.312 45.4855 32.796C45.7615 32.28 45.8995 31.704 45.8995 31.068C45.8995 30.42 45.7615 29.844 45.4855 29.34C45.2095 28.836 44.8315 28.44 44.3515 28.152C43.8715 27.852 43.3255 27.702 42.7135 27.702C42.1135 27.702 41.5675 27.852 41.0755 28.152C40.5955 28.44 40.2115 28.836 39.9235 29.34C39.6475 29.844 39.5095 30.42 39.5095 31.068C39.5095 31.704 39.6475 32.28 39.9235 32.796C40.2115 33.312 40.5955 33.72 41.0755 34.02C41.5675 34.308 42.1135 34.452 42.7135 34.452ZM54.2177 36.072C53.3777 36.072 52.5977 35.946 51.8777 35.694C51.1697 35.43 50.6177 35.1 50.2217 34.704C50.0417 34.512 49.9637 34.296 49.9877 34.056C50.0237 33.804 50.1437 33.6 50.3477 33.444C50.5877 33.252 50.8217 33.174 51.0497 33.21C51.2897 33.234 51.4937 33.336 51.6617 33.516C51.8657 33.744 52.1897 33.96 52.6337 34.164C53.0897 34.356 53.5937 34.452 54.1457 34.452C54.8417 34.452 55.3697 34.338 55.7297 34.11C56.1017 33.882 56.2937 33.588 56.3057 33.228C56.3177 32.868 56.1437 32.556 55.7837 32.292C55.4357 32.028 54.7937 31.812 53.8577 31.644C52.6457 31.404 51.7637 31.044 51.2117 30.564C50.6717 30.084 50.4017 29.496 50.4017 28.8C50.4017 28.188 50.5817 27.684 50.9417 27.288C51.3017 26.88 51.7637 26.58 52.3277 26.388C52.8917 26.184 53.4797 26.082 54.0917 26.082C54.8837 26.082 55.5857 26.208 56.1977 26.46C56.8097 26.712 57.2957 27.06 57.6557 27.504C57.8237 27.696 57.9017 27.9 57.8897 28.116C57.8777 28.32 57.7757 28.494 57.5837 28.638C57.3917 28.77 57.1637 28.812 56.8997 28.764C56.6357 28.716 56.4137 28.608 56.2337 28.44C55.9337 28.152 55.6097 27.954 55.2617 27.846C54.9137 27.738 54.5117 27.684 54.0557 27.684C53.5277 27.684 53.0777 27.774 52.7057 27.954C52.3457 28.134 52.1657 28.398 52.1657 28.746C52.1657 28.962 52.2197 29.16 52.3277 29.34C52.4477 29.508 52.6757 29.664 53.0117 29.808C53.3477 29.94 53.8397 30.072 54.4877 30.204C55.8437 30.468 56.7797 30.846 57.2957 31.338C57.8237 31.818 58.0877 32.412 58.0877 33.12C58.0877 33.672 57.9377 34.17 57.6377 34.614C57.3497 35.058 56.9177 35.412 56.3417 35.676C55.7777 35.94 55.0697 36.072 54.2177 36.072Z" fill="#FDF6F6"/>
</svg>
