<svg width="24" height="20" viewBox="0 0 24 20" fill="none" xmlns="http://www.w3.org/2000/svg">
<path fill-rule="evenodd" clip-rule="evenodd" d="M21.1596 5.51066C21.1752 5.72066 21.1752 5.92946 21.1752 6.13826C21.1752 12.5283 16.3116 19.8915 7.4232 19.8915C4.6848 19.8915 2.1408 19.0983 0 17.7207C0.3888 17.7651 0.7632 17.7807 1.1676 17.7807C3.4272 17.7807 5.5068 17.0175 7.1688 15.7155C5.0436 15.6711 3.2628 14.2791 2.6484 12.3639C2.9472 12.4083 3.2472 12.4383 3.5616 12.4383C3.9948 12.4383 4.4304 12.3783 4.8348 12.2739C2.6184 11.8251 0.9588 9.87986 0.9588 7.53026V7.47026C1.6032 7.82906 2.3508 8.05346 3.1428 8.08346C1.8408 7.21706 0.9876 5.73506 0.9876 4.05866C0.9876 3.16106 1.2264 2.33786 1.6452 1.62026C4.0248 4.55186 7.602 6.46826 11.6124 6.67826C11.538 6.31826 11.4924 5.94506 11.4924 5.57066C11.4924 2.90666 13.6476 0.737061 16.326 0.737061C17.718 0.737061 18.9744 1.32026 19.8576 2.26346C20.9496 2.05346 21.996 1.64906 22.9248 1.09586C22.566 2.21786 21.8016 3.16106 20.7996 3.75986C21.7728 3.65426 22.716 3.38546 23.5824 3.01106C22.9248 3.96866 22.1028 4.82186 21.1596 5.51066Z" fill="white"/>
</svg>
